<?xml version="1.0" encoding="UTF-8"?>
<svg id="Layer_2" data-name="Layer 2" xmlns="http://www.w3.org/2000/svg" xmlns:xlink="http://www.w3.org/1999/xlink" viewBox="0 0 263.99 247.18">
  <defs>
    <style>
      .cls-1 {
        fill: url(#linear-gradient);
      }
    </style>
    <linearGradient id="linear-gradient" x1="35.01" y1="35.77" x2="251.3" y2="204.74" gradientUnits="userSpaceOnUse">
      <stop offset="0" stop-color="#4d8dff"/>
      <stop offset=".24" stop-color="#185aff"/>
      <stop offset=".31" stop-color="#0e4bdc"/>
      <stop offset=".38" stop-color="#0640c1"/>
      <stop offset=".44" stop-color="#845472"/>
      <stop offset=".49" stop-color="#ff6927"/>
      <stop offset=".58" stop-color="#f02313"/>
      <stop offset=".63" stop-color="#ea030a"/>
      <stop offset=".78" stop-color="#f31a1e"/>
      <stop offset=".99" stop-color="#ff3636"/>
    </linearGradient>
  </defs>
  <g id="Layer_6" data-name="Layer 6">
    <path class="cls-1" d="M36.6,105.42l-8.43-2.81c-1.2-.39-1.85-1.7-1.44-2.9.39-1.2,1.69-1.85,2.9-1.45l5.08,1.7c.54,1.85,1.17,3.68,1.9,5.47ZM39.32,111.41l-2.58,8.07c-.18.59-.14,1.21.15,1.75s.76.95,1.35,1.14c.19.06.38.09.57.11.31,0,.6-.03.87-.13.67-.23,1.21-.77,1.44-1.47l1.32-4.11c-1.12-1.74-2.16-3.52-3.11-5.36ZM44.01,126.31c.07,1.26,1.16,2.23,2.42,2.17.22-.01.43-.06.63-.12.94-.33,1.59-1.25,1.54-2.29l-.07-1.29c-1.78-1.98-3.42-4.07-4.93-6.26l.41,7.79ZM49.31,130.9c-.55,1.17-.23,2.51.78,3.32.77.62,1.74.77,2.63.46.27-.09.54-.23.79-.42l2.79-2.14c-1.88-1.49-3.67-3.09-5.34-4.78l-1.64,3.56ZM59.84,134.74c-.65.77-.73,1.91-.14,2.78.6.88,1.69,1.2,2.65.87.19-.07.37-.16.55-.27l1.11-.75c-1.43-.82-2.82-1.69-4.17-2.61ZM37.4,110.89c.25-2.12-1.27-4.05-3.39-4.3-.67-.08-1.36.02-1.98.28-.31.13-.6.31-.87.52-.81.64-1.33,1.56-1.45,2.58-.12,1.02.16,2.04.8,2.85.64.81,1.56,1.33,2.58,1.45.6.07,1.18,0,1.72-.19,1.36-.47,2.4-1.68,2.58-3.2ZM88.36,10.46c-.6-.07-1.21.1-1.69.48-.99.79-1.16,2.24-.37,3.23l3.52,4.42c1.86-.19,3.75-.27,5.64-.28l-5.57-6.99c-.38-.48-.93-.78-1.54-.85ZM111.9,13.99c-.37-.49-.91-.8-1.53-.88-.61-.07-1.2.09-1.69.46l-6.49,5.03c2.11.2,4.21.51,6.28.94l3.03-2.34c.82-.64,1.11-1.76.71-2.72-.07-.18-.17-.35-.3-.5ZM117.59,18.07l-6.66,2.05c2.6.64,5.17,1.45,7.69,2.44l.32-.1c1.21-.35,1.89-1.65,1.52-2.86-.37-1.22-1.66-1.9-2.87-1.53ZM123.72,21.47l-2.27,2.27c2.08.91,4.11,1.95,6.08,3.08l.8-2.55c.39-1.24-.1-2.52-1.21-3.2s-2.47-.51-3.39.4ZM133.51,28.96c-.7-.18-1.42-.01-1.94.4,1.21.82,2.39,1.69,3.54,2.6l.05-.21c.31-1.22-.43-2.47-1.65-2.8ZM100.37,17.35c.16-.06.32-.12.47-.2,1.9-.96,2.67-3.29,1.71-5.2h0c-.47-.92-1.26-1.61-2.24-1.93-.98-.32-2.03-.24-2.95.22-.92.47-1.61,1.26-1.93,2.24-.11.33-.17.66-.19,1-.04.67.11,1.35.41,1.96.88,1.75,2.92,2.54,4.73,1.91ZM49.91,17.79l-4.73,13.8,4.57,9.18c-1.01.99-2.02,2.02-3.01,3.1-.12.14-.24.27-.36.41l-5.3-10.64-13.88-4.55c-1.2-.4-1.86-1.7-1.46-2.9.2-.58.61-1.07,1.16-1.34.55-.27,1.17-.31,1.75-.12l12.63,4.14,4.3-12.57c.41-1.2,1.72-1.84,2.92-1.43,1.2.4,1.84,1.71,1.44,2.91ZM30.57,49.5l11.6.72c-.82,1.43-1.53,2.93-2.15,4.47l-9.73-.6-10.88,9.73c-.23.21-.5.36-.78.46s-.58.15-.88.13c-.61-.04-1.17-.31-1.58-.76-.41-.46-.62-1.04-.58-1.65.03-.61.3-1.18.75-1.59l9.91-8.87-8.74-10.02c-.84-.95-.73-2.4.22-3.24.15-.12.31-.23.49-.33.93-.46,2.07-.24,2.75.55l9.6,11ZM55.13,24.88c-1.29-.09-2.42.7-2.81,1.93l-3.46,11.03.17.21c.54.65,1.17,1.19,1.89,1.61,2.58-2.39,5.23-4.52,7.9-6.41l-1.12-6.11c-.23-1.28-1.27-2.19-2.56-2.27ZM38.09,49.4c.41-.07.81-.17,1.19-.31,1.48-.52,2.74-1.49,3.63-2.83,1.12-1.69,1.48-3.7,1.01-5.67l-.06-.26-10.89-3.89c-1.22-.43-2.52,0-3.24,1.08-.72,1.08-.61,2.45.27,3.41l7.82,8.52.27-.05ZM37.74,55.09l-.26-.08-8.82,7.49c-.99.84-1.26,2.19-.69,3.35.59,1.17,1.82,1.76,3.08,1.47l5.77-1.28c.6-3.47,1.48-6.89,2.71-10.13-.54-.35-1.14-.62-1.79-.82ZM28.64,19.75l7.5,2.46c.49.16,1.01.15,1.47-.02.64-.22,1.18-.73,1.42-1.42l2.56-7.47c.41-1.2-.23-2.51-1.43-2.92-1.2-.41-2.5.23-2.92,1.43l-1.82,5.32-5.35-1.75c-.58-.19-1.2-.14-1.74.13h0c-.55.28-.96.75-1.16,1.34-.19.58-.14,1.2.13,1.75.28.55.75.95,1.33,1.14ZM13.17,50.73l-4.19,3.75c-.94.84-1.02,2.3-.18,3.24.64.71,1.62.93,2.47.63.28-.1.54-.25.77-.46l5.88-5.27c.93-.83,1.02-2.28.2-3.22l-5.19-5.95c-.69-.79-1.82-1.01-2.75-.55-.18.09-.34.2-.49.33-.95.83-1.05,2.28-.22,3.24l3.7,4.24ZM33.08,13.7c.91-.32,1.72-.92,2.29-1.78.67-1.01.91-2.23.67-3.42-.24-1.19-.93-2.22-1.95-2.89-1.35-.9-3.09-1-4.55-.28-.71.35-1.32.89-1.76,1.56-1.39,2.09-.81,4.92,1.28,6.31,1.23.82,2.72.95,4.02.5ZM3.11,54.5c.97.32,1.99.32,2.94-.01.18-.06.36-.14.54-.23,1.09-.54,1.9-1.47,2.28-2.63.39-1.15.3-2.39-.24-3.47s-1.47-1.9-2.63-2.29-2.38-.3-3.48.24c-2.25,1.12-3.16,3.86-2.05,6.1.54,1.09,1.48,1.9,2.63,2.29ZM82.53,13.44c-.93-.86-2.38-.79-3.23.15l-8.91,9.76-9.93-8.79c-.95-.84-2.4-.75-3.23.19-.14.15-.25.32-.34.49-.47.92-.24,2.05.53,2.74l9.78,8.67-.03,1.45c2.97-1.58,5.91-2.9,8.73-4l6.78-7.43c.41-.45.62-1.04.59-1.65-.03-.61-.29-1.17-.75-1.58ZM68.65,17.49c.57.59,1.42.75,2.15.5.27-.09.52-.24.73-.45l4.94-4.7c.4-.38.62-.89.64-1.43.01-.55-.19-1.07-.56-1.46-.38-.4-.89-.62-1.43-.64-.55-.01-1.07.19-1.46.56l-3.48,3.3-3.35-3.43c-.79-.81-2.09-.82-2.9-.03-.13.12-.23.26-.32.41h0c-.48.8-.36,1.82.29,2.49l4.76,4.88ZM68.58,7.84c.81.23,1.64.21,2.42-.06.21-.07.42-.17.62-.28h0c1.93-1.07,2.63-3.51,1.57-5.44-1.07-1.93-3.52-2.63-5.44-1.57-.62.34-1.13.83-1.49,1.43-.18.3-.32.62-.42.96-.3,1.03-.17,2.11.34,3.04.52.94,1.37,1.61,2.39,1.91ZM28.7,83.58c.49-1,.09-2.23-.91-2.73l-6.08-3.09c-.83-.42-1.84-.23-2.46.46-.11.13-.21.27-.3.43-.25.49-.29,1.04-.12,1.56s.53.94,1.02,1.19l4.27,2.18-2.12,4.3c-.5,1.01-.08,2.25.93,2.75.49.24,1.05.28,1.57.1h.02c.51-.18.92-.55,1.16-1.04l3.01-6.12ZM16.03,81.93c-1.05-.22-2.11-.01-3.01.58-.29.19-.56.42-.8.69-.46.52-.78,1.16-.92,1.85-.44,2.16.95,4.28,3.11,4.72.73.15,1.46.09,2.11-.14,1.29-.45,2.32-1.54,2.61-2.97.21-1.05,0-2.11-.58-3.01-.59-.89-1.49-1.5-2.53-1.72ZM24.92,69.97c-.89-.54-2.04-.41-2.78.31-.14.13-.27.29-.36.46-.65,1.08-.3,2.49.78,3.14l11.35,6.86-6.67,11.41c-.64,1.09-.27,2.49.82,3.14.53.31,1.14.39,1.74.24.06-.01.12-.03.18-.05.51-.18.93-.53,1.21-1l4.66-7.96c-.17-3.18-.23-6.56-.09-9.99l-10.84-6.56ZM258.32,199.65l5.68.34-5.01-2.69c-79.13-42.51-111.6-60.9-140.26-93.67,5.54,3.78,11.12,7.05,14.86,8.62l1.98.83-.25-2.13c-2.34-19.98-16.85-40.11-28.95-47.31-5.18-3.08-9.94-3.91-13.75-2.38-2.51,1.01-4.2,3.03-5.03,6.02-2.58,9.34,4.04,26.01,12.39,38.03-20.17-4.78-30.29-18.91-27.18-38.33l.03-.16-.02-.16c-1.03-9.94.44-17.43,4.25-21.65,2.99-3.31,6.47-3.67,7.84-3.67h0c3.75,0,6.33,1.46,8.11,4.6l.15.27,1.41.9c2.49,1.59,5.51,3.53,7.44,5.45-3.22,2.19-8.78,3.44-11.21,1.77l-1.41,2.06c4.19,2.87,11.97.24,15.28-2.75l.87-.79-.73-.92c-2.04-2.55-5.84-4.98-8.9-6.93l-.89-.57c-2.24-3.76-5.55-5.59-10.12-5.59h0c-1.7,0-6.04.44-9.69,4.49-4.34,4.81-5.98,12.68-4.9,23.42-3.37,21.5,9.01,37.46,32.37,41.67l3.16.57-1.95-2.56c-9.92-13.04-16.15-30.3-13.89-38.49.61-2.23,1.78-3.65,3.55-4.36,3.87-1.55,8.41.34,11.54,2.2,11.14,6.63,24.42,24.75,27.43,43.22-11.69-5.72-33.78-22.1-32.4-27.74l-2.43-.59c-.9,3.68,3.31,9.27,12.49,16.63,30.05,37.37,60.46,55.29,141.25,98.76-28.53-6.57-75.08-39.47-75.59-39.83l-1.55,1.96c.13.12,13.32,11.67,27.65,28.38,4.92,5.74,10.35,12.53,15.51,19.95-21.4-26.4-56.79-56.16-105.83-88.95-1.61-1.08-2.92-1.95-3.88-2.61-10.61-7.24-17.92-7.06-21.22-4.48-1.78,1.38-2.42,3.48-1.69,5.47.6,1.64,2.03,2.82,3.56,2.95.85.07,2.46-.13,3.7-2.28l-2.17-1.24c-.29.5-.76,1.08-1.32,1.04-.55-.05-1.16-.62-1.42-1.32-.35-.96-.03-1.92.88-2.64,2.49-1.94,8.77-1.91,18.27,4.58.96.66,2.28,1.54,3.9,2.62,93.63,62.59,120.88,103.89,127.25,127.52l2.42-.62c-5.58-22.68-22.69-46.02-36.06-61.61-6.19-7.22-12.17-13.49-17-18.3,5.26,3.41,11.8,7.52,18.89,11.63,23.2,13.47,40.9,20.66,52.6,21.37ZM84.59,46.57c0,.89.72,1.62,1.62,1.62s1.62-.72,1.62-1.62-.72-1.62-1.62-1.62-1.62.72-1.62,1.62ZM119.16,138.58c-34.95,13.09-74.36-8.01-81.38-44.82-3.99-20.31,3.48-42.38,19.37-55.73,15.5-13.76,38.45-17.93,57.95-11.03,27.33,9.45,44.09,38.14,39.39,66.66-1.08,7.07-3.47,13.97-6.91,20.38,8.39-12.12,11.83-27.45,9.94-42.12-2.78-22.6-18.95-42.78-40.32-50.67-29.43-11.38-64.09,1.47-78.99,29.3-15.33,27.31-7.61,63.42,17.76,81.82,17.88,13.47,43.12,16.16,63.19,6.22h0Z"/>
  </g>
</svg>